<svg xmlns="http://www.w3.org/2000/svg" version="1.1" xmlns:xlink="http://www.w3.org/1999/xlink" xmlns:svgjs="http://svgjs.dev/svgjs" width="1000" height="1000" viewBox="0 0 1000 1000"><rect width="1000" height="1000" fill="#000000"></rect><g transform="matrix(0.7,0,0,0.7,149.57575757575756,282.1265587044535)"><svg viewBox="0 0 396 247" data-background-color="#1b4571" preserveAspectRatio="xMidYMid meet" height="623" width="1000" xmlns="http://www.w3.org/2000/svg" xmlns:xlink="http://www.w3.org/1999/xlink"><g id="tight-bounds" transform="matrix(1,0,0,1,0.2400000000000091,-0.09999999999999432)"><svg viewBox="0 0 395.52 247.2" height="247.2" width="395.52"><g><svg></svg></g><g><svg viewBox="0 0 395.52 247.2" height="247.2" width="395.52"><g transform="matrix(1,0,0,1,140.16740839363243,47.21520000000001)"><svg viewBox="0 0 115.18518321273514 152.76959999999997" height="152.76959999999997" width="115.18518321273514"><g><svg viewBox="0 0 115.18518321273514 152.76959999999997" height="152.76959999999997" width="115.18518321273514"><g><svg viewBox="0 0 115.18518321273514 152.76959999999997" height="152.76959999999997" width="115.18518321273514"><g><svg viewBox="0 0 115.18518321273514 152.76959999999997" height="152.76959999999997" width="115.18518321273514"><g id="textblocktransform"><svg viewBox="0 0 115.18518321273514 152.76959999999997" height="152.76959999999997" width="115.18518321273514" id="textblock"><g><svg viewBox="0 0 115.18518321273514 152.76959999999997" height="152.76959999999997" width="115.18518321273514"><g transform="matrix(1,0,0,1,0,0)"><svg width="115.18518321273514" viewBox="4.050000190734863 -34.54999923706055 26.049999237060547 34.54999923706055" height="152.76959999999997" data-palette-color="#ffffff"><path d="M22.5 0L14.85-13.85 10.65-13.85 10.65 0 4.05 0 4.05-34.55 14.35-34.55Q28.05-34.55 28.05-24.4L28.05-24.4Q28.05-20.95 26.35-18.7 24.65-16.45 21.05-15.05L21.05-15.05 30.1 0 22.5 0ZM10.65-29.75L10.65-18.6 14.75-18.6Q17.9-18.6 19.53-19.98 21.15-21.35 21.15-24.4L21.15-24.4Q21.15-27.2 19.48-28.48 17.8-29.75 14.2-29.75L14.2-29.75 10.65-29.75Z" opacity="1" transform="matrix(1,0,0,1,0,0)" fill="#ffffff" class="wordmark-text-0" data-fill-palette-color="primary" id="text-0"></path></svg></g></svg></g></svg></g></svg></g></svg></g></svg></g></svg></g><g><path d="M181.193 0c30.402 0 58.24 10.976 79.768 29.183l-11.147 0c-19.26-14.022-42.974-22.294-68.621-22.295-25.647 0-49.361 8.272-68.622 22.295l-11.147 0c21.528-18.206 49.366-29.183 79.769-29.183zM181.193 247.2c-30.402 0-58.24-10.976-79.769-29.183h11.147c19.26 14.022 42.974 22.294 68.622 22.295 25.647 0 49.361-8.272 68.621-22.295h11.147c-21.528 18.206-49.366 29.183-79.768 29.183z" fill="#ffffff" stroke="transparent" data-fill-palette-color="tertiary"></path></g></svg></g><defs></defs></svg><rect width="395.52" height="247.2" fill="none" stroke="none" visibility="hidden"></rect></g></svg></g></svg>